<svg xmlns="http://www.w3.org/2000/svg" xmlns:xlink="http://www.w3.org/1999/xlink" width="1920" zoomAndPan="magnify" viewBox="0 0 1440 809.999993" height="1080" preserveAspectRatio="xMidYMid meet" version="1.0"><defs><g/></defs><rect x="-144" width="1728" fill="#ffffff" y="-80.999999" height="971.999992" fill-opacity="1"/><rect x="-144" width="1728" fill="#ffe6ee" y="-80.999999" height="971.999992" fill-opacity="1"/><g fill="#000000" fill-opacity="1"><g transform="translate(333.255337, 487.959424)"><g><path d="M 46.59375 -147.53125 C 52.601562 -147.53125 57.972656 -146.507812 62.703125 -144.46875 C 67.429688 -142.425781 71.421875 -139.4375 74.671875 -135.5 C 77.929688 -131.5625 80.398438 -126.765625 82.078125 -121.109375 C 83.765625 -115.453125 84.609375 -109.046875 84.609375 -101.890625 C 84.609375 -98.816406 84.320312 -95.539062 83.75 -92.0625 C 83.175781 -88.59375 82.242188 -85.175781 80.953125 -81.8125 C 79.660156 -78.445312 78.015625 -75.207031 76.015625 -72.09375 C 74.015625 -68.976562 71.5625 -66.238281 68.65625 -63.875 C 65.757812 -61.519531 62.394531 -59.644531 58.5625 -58.25 C 54.738281 -56.851562 50.394531 -56.15625 45.53125 -56.15625 L 28.984375 -56.15625 C 29.128906 -46.988281 29.328125 -37.628906 29.578125 -28.078125 C 29.828125 -18.523438 30.238281 -9.164062 30.8125 0 L 10.734375 0 C 11.160156 -6.082031 11.5 -12.328125 11.75 -18.734375 C 12 -25.140625 12.195312 -31.507812 12.34375 -37.84375 C 12.488281 -44.175781 12.597656 -50.382812 12.671875 -56.46875 C 12.742188 -62.5625 12.78125 -68.363281 12.78125 -73.875 C 12.78125 -79.382812 12.742188 -85.179688 12.671875 -91.265625 C 12.597656 -97.347656 12.488281 -103.535156 12.34375 -109.828125 C 12.195312 -116.128906 12 -122.460938 11.75 -128.828125 C 11.5 -135.203125 11.160156 -141.4375 10.734375 -147.53125 Z M 30.28125 -135.5 C 29.78125 -124.90625 29.4375 -114.3125 29.25 -103.71875 C 29.070312 -93.125 28.984375 -83.175781 28.984375 -73.875 L 28.984375 -68.078125 L 45.53125 -68.078125 C 51.96875 -68.078125 56.972656 -71.023438 60.546875 -76.921875 C 64.128906 -82.828125 65.921875 -91.148438 65.921875 -101.890625 C 65.921875 -112.835938 64.238281 -121.175781 60.875 -126.90625 C 57.507812 -132.632812 52.394531 -135.5 45.53125 -135.5 Z M 30.28125 -135.5 "/></g></g><g transform="translate(423.229903, 487.959424)"><g><path d="M 100.28125 -73.65625 C 100.28125 -60.414062 99.097656 -48.976562 96.734375 -39.34375 C 94.378906 -29.71875 91.109375 -21.773438 86.921875 -15.515625 C 82.734375 -9.253906 77.8125 -4.617188 72.15625 -1.609375 C 66.5 1.398438 60.414062 2.90625 53.90625 2.90625 C 47.3125 2.90625 41.1875 1.398438 35.53125 -1.609375 C 29.882812 -4.617188 24.96875 -9.253906 20.78125 -15.515625 C 16.59375 -21.773438 13.296875 -29.71875 10.890625 -39.34375 C 8.492188 -48.976562 7.296875 -60.414062 7.296875 -73.65625 C 7.296875 -86.820312 8.492188 -98.21875 10.890625 -107.84375 C 13.296875 -117.476562 16.59375 -125.441406 20.78125 -131.734375 C 24.96875 -138.035156 29.882812 -142.6875 35.53125 -145.6875 C 41.1875 -148.695312 47.3125 -150.203125 53.90625 -150.203125 C 60.414062 -150.203125 66.5 -148.695312 72.15625 -145.6875 C 77.8125 -142.6875 82.734375 -138.035156 86.921875 -131.734375 C 91.109375 -125.441406 94.378906 -117.476562 96.734375 -107.84375 C 99.097656 -98.21875 100.28125 -86.820312 100.28125 -73.65625 Z M 81.8125 -73.65625 C 81.8125 -84.675781 81.09375 -94.191406 79.65625 -102.203125 C 78.226562 -110.222656 76.257812 -116.828125 73.75 -122.015625 C 71.25 -127.210938 68.296875 -131.046875 64.890625 -133.515625 C 61.492188 -135.984375 57.832031 -137.21875 53.90625 -137.21875 C 49.894531 -137.21875 46.1875 -135.984375 42.78125 -133.515625 C 39.382812 -131.046875 36.414062 -127.210938 33.875 -122.015625 C 31.332031 -116.828125 29.34375 -110.222656 27.90625 -102.203125 C 26.476562 -94.191406 25.765625 -84.675781 25.765625 -73.65625 C 25.765625 -62.5625 26.476562 -53.003906 27.90625 -44.984375 C 29.34375 -36.972656 31.332031 -30.390625 33.875 -25.234375 C 36.414062 -20.078125 39.382812 -16.265625 42.78125 -13.796875 C 46.1875 -11.328125 49.894531 -10.09375 53.90625 -10.09375 C 57.832031 -10.09375 61.492188 -11.328125 64.890625 -13.796875 C 68.296875 -16.265625 71.25 -20.078125 73.75 -25.234375 C 76.257812 -30.390625 78.226562 -36.972656 79.65625 -44.984375 C 81.09375 -53.003906 81.8125 -62.5625 81.8125 -73.65625 Z M 81.8125 -73.65625 "/></g></g><g transform="translate(530.812856, 487.959424)"><g><path d="M 45.734375 -147.53125 C 57.835938 -147.53125 67.195312 -143.984375 73.8125 -136.890625 C 80.4375 -129.804688 83.75 -119.070312 83.75 -104.6875 C 83.75 -95.375 82.132812 -87.691406 78.90625 -81.640625 C 75.6875 -75.597656 70.929688 -70.96875 64.640625 -67.75 C 66.210938 -61.59375 68.179688 -54.898438 70.546875 -47.671875 C 72.617188 -41.441406 75.210938 -34.242188 78.328125 -26.078125 C 81.441406 -17.921875 85.253906 -9.226562 89.765625 0 L 67.109375 0 C 63.890625 -10.664062 61.222656 -19.953125 59.109375 -27.859375 C 56.992188 -35.765625 55.328125 -42.40625 54.109375 -47.78125 C 52.679688 -54.007812 51.570312 -59.34375 50.78125 -63.78125 L 28.984375 -63.78125 C 28.984375 -58.769531 29.035156 -53.597656 29.140625 -48.265625 C 29.253906 -42.929688 29.378906 -37.5625 29.515625 -32.15625 C 29.660156 -26.75 29.84375 -21.328125 30.0625 -15.890625 C 30.28125 -10.453125 30.53125 -5.15625 30.8125 0 L 10.734375 0 C 11.160156 -6.082031 11.5 -12.328125 11.75 -18.734375 C 12 -25.140625 12.195312 -31.507812 12.34375 -37.84375 C 12.488281 -44.175781 12.597656 -50.382812 12.671875 -56.46875 C 12.742188 -62.5625 12.78125 -68.363281 12.78125 -73.875 C 12.78125 -79.382812 12.742188 -85.179688 12.671875 -91.265625 C 12.597656 -97.347656 12.488281 -103.535156 12.34375 -109.828125 C 12.195312 -116.128906 12 -122.460938 11.75 -128.828125 C 11.5 -135.203125 11.160156 -141.4375 10.734375 -147.53125 Z M 30.28125 -135.5 C 29.78125 -125.257812 29.4375 -115.003906 29.25 -104.734375 C 29.070312 -94.460938 28.984375 -84.78125 28.984375 -75.6875 L 44.671875 -75.6875 C 47.890625 -75.6875 50.75 -76.1875 53.25 -77.1875 C 55.757812 -78.195312 57.890625 -79.847656 59.640625 -82.140625 C 61.398438 -84.429688 62.742188 -87.414062 63.671875 -91.09375 C 64.597656 -94.78125 65.0625 -99.3125 65.0625 -104.6875 C 65.0625 -115.5625 63.359375 -123.414062 59.953125 -128.25 C 56.554688 -133.082031 51.460938 -135.5 44.671875 -135.5 Z M 30.28125 -135.5 "/></g></g><g transform="translate(621.646368, 487.959424)"><g><path d="M 1.609375 -147.53125 L 75.15625 -147.53125 L 75.15625 -134.96875 L 47.78125 -134.96875 C 47.207031 -124.4375 46.847656 -113.910156 46.703125 -103.390625 C 46.554688 -92.867188 46.484375 -83.03125 46.484375 -73.875 C 46.484375 -68.363281 46.519531 -62.5625 46.59375 -56.46875 C 46.664062 -50.382812 46.773438 -44.175781 46.921875 -37.84375 C 47.066406 -31.507812 47.242188 -25.140625 47.453125 -18.734375 C 47.671875 -12.328125 47.957031 -6.082031 48.3125 0 L 28.234375 0 C 28.660156 -6.082031 29 -12.328125 29.25 -18.734375 C 29.507812 -25.140625 29.707031 -31.507812 29.84375 -37.84375 C 29.988281 -44.175781 30.097656 -50.382812 30.171875 -56.46875 C 30.242188 -62.5625 30.28125 -68.363281 30.28125 -73.875 C 30.28125 -83.03125 30.1875 -92.867188 30 -103.390625 C 29.820312 -113.910156 29.484375 -124.4375 28.984375 -134.96875 L 1.609375 -134.96875 Z M 1.609375 -147.53125 "/></g></g><g transform="translate(698.414643, 487.959424)"><g><path d="M 70.75 -147.53125 L 70.75 -134.96875 L 30.28125 -134.96875 C 29.851562 -126.519531 29.546875 -118.035156 29.359375 -109.515625 C 29.179688 -100.992188 29.054688 -92.796875 28.984375 -84.921875 L 67.75 -84.921875 L 67.75 -72.359375 L 28.984375 -72.359375 C 28.984375 -66.921875 29.019531 -61.210938 29.09375 -55.234375 C 29.164062 -49.265625 29.273438 -43.179688 29.421875 -36.984375 C 29.566406 -30.796875 29.742188 -24.566406 29.953125 -18.296875 C 30.171875 -12.035156 30.457031 -5.9375 30.8125 0 L 10.734375 0 C 11.160156 -6.082031 11.5 -12.328125 11.75 -18.734375 C 12 -25.140625 12.195312 -31.507812 12.34375 -37.84375 C 12.488281 -44.175781 12.597656 -50.382812 12.671875 -56.46875 C 12.742188 -62.5625 12.78125 -68.363281 12.78125 -73.875 C 12.78125 -79.382812 12.742188 -85.179688 12.671875 -91.265625 C 12.597656 -97.347656 12.488281 -103.535156 12.34375 -109.828125 C 12.195312 -116.128906 12 -122.460938 11.75 -128.828125 C 11.5 -135.203125 11.160156 -141.4375 10.734375 -147.53125 Z M 70.75 -147.53125 "/></g></g><g transform="translate(773.787132, 487.959424)"><g><path d="M 100.28125 -73.65625 C 100.28125 -60.414062 99.097656 -48.976562 96.734375 -39.34375 C 94.378906 -29.71875 91.109375 -21.773438 86.921875 -15.515625 C 82.734375 -9.253906 77.8125 -4.617188 72.15625 -1.609375 C 66.5 1.398438 60.414062 2.90625 53.90625 2.90625 C 47.3125 2.90625 41.1875 1.398438 35.53125 -1.609375 C 29.882812 -4.617188 24.96875 -9.253906 20.78125 -15.515625 C 16.59375 -21.773438 13.296875 -29.71875 10.890625 -39.34375 C 8.492188 -48.976562 7.296875 -60.414062 7.296875 -73.65625 C 7.296875 -86.820312 8.492188 -98.21875 10.890625 -107.84375 C 13.296875 -117.476562 16.59375 -125.441406 20.78125 -131.734375 C 24.96875 -138.035156 29.882812 -142.6875 35.53125 -145.6875 C 41.1875 -148.695312 47.3125 -150.203125 53.90625 -150.203125 C 60.414062 -150.203125 66.5 -148.695312 72.15625 -145.6875 C 77.8125 -142.6875 82.734375 -138.035156 86.921875 -131.734375 C 91.109375 -125.441406 94.378906 -117.476562 96.734375 -107.84375 C 99.097656 -98.21875 100.28125 -86.820312 100.28125 -73.65625 Z M 81.8125 -73.65625 C 81.8125 -84.675781 81.09375 -94.191406 79.65625 -102.203125 C 78.226562 -110.222656 76.257812 -116.828125 73.75 -122.015625 C 71.25 -127.210938 68.296875 -131.046875 64.890625 -133.515625 C 61.492188 -135.984375 57.832031 -137.21875 53.90625 -137.21875 C 49.894531 -137.21875 46.1875 -135.984375 42.78125 -133.515625 C 39.382812 -131.046875 36.414062 -127.210938 33.875 -122.015625 C 31.332031 -116.828125 29.34375 -110.222656 27.90625 -102.203125 C 26.476562 -94.191406 25.765625 -84.675781 25.765625 -73.65625 C 25.765625 -62.5625 26.476562 -53.003906 27.90625 -44.984375 C 29.34375 -36.972656 31.332031 -30.390625 33.875 -25.234375 C 36.414062 -20.078125 39.382812 -16.265625 42.78125 -13.796875 C 46.1875 -11.328125 49.894531 -10.09375 53.90625 -10.09375 C 57.832031 -10.09375 61.492188 -11.328125 64.890625 -13.796875 C 68.296875 -16.265625 71.25 -20.078125 73.75 -25.234375 C 76.257812 -30.390625 78.226562 -36.972656 79.65625 -44.984375 C 81.09375 -53.003906 81.8125 -62.5625 81.8125 -73.65625 Z M 81.8125 -73.65625 "/></g></g><g transform="translate(881.370085, 487.959424)"><g><path d="M 31.03125 -147.53125 C 30.601562 -141.4375 30.265625 -135.203125 30.015625 -128.828125 C 29.765625 -122.460938 29.566406 -116.128906 29.421875 -109.828125 C 29.273438 -103.535156 29.164062 -97.347656 29.09375 -91.265625 C 29.019531 -85.179688 28.984375 -79.382812 28.984375 -73.875 C 28.984375 -64.632812 29.054688 -54.734375 29.203125 -44.171875 C 29.347656 -33.617188 29.671875 -23.082031 30.171875 -12.5625 L 73.65625 -12.5625 L 73.65625 0 L 10.734375 0 C 11.160156 -6.082031 11.5 -12.328125 11.75 -18.734375 C 12 -25.140625 12.195312 -31.507812 12.34375 -37.84375 C 12.488281 -44.175781 12.597656 -50.382812 12.671875 -56.46875 C 12.742188 -62.5625 12.78125 -68.363281 12.78125 -73.875 C 12.78125 -79.382812 12.742188 -85.179688 12.671875 -91.265625 C 12.597656 -97.347656 12.488281 -103.535156 12.34375 -109.828125 C 12.195312 -116.128906 12 -122.460938 11.75 -128.828125 C 11.5 -135.203125 11.160156 -141.4375 10.734375 -147.53125 Z M 31.03125 -147.53125 "/></g></g><g transform="translate(956.098364, 487.959424)"><g><path d="M 31.671875 -147.53125 C 31.242188 -141.4375 30.90625 -135.203125 30.65625 -128.828125 C 30.40625 -122.460938 30.207031 -116.128906 30.0625 -109.828125 C 29.914062 -103.535156 29.804688 -97.347656 29.734375 -91.265625 C 29.671875 -85.179688 29.640625 -79.382812 29.640625 -73.875 C 29.640625 -68.363281 29.671875 -62.5625 29.734375 -56.46875 C 29.804688 -50.382812 29.914062 -44.175781 30.0625 -37.84375 C 30.207031 -31.507812 30.382812 -25.140625 30.59375 -18.734375 C 30.8125 -12.328125 31.097656 -6.082031 31.453125 0 L 11.375 0 C 11.8125 -6.082031 12.15625 -12.328125 12.40625 -18.734375 C 12.65625 -25.140625 12.847656 -31.507812 12.984375 -37.84375 C 13.128906 -44.175781 13.238281 -50.382812 13.3125 -56.46875 C 13.382812 -62.5625 13.421875 -68.363281 13.421875 -73.875 C 13.421875 -79.382812 13.382812 -85.179688 13.3125 -91.265625 C 13.238281 -97.347656 13.128906 -103.535156 12.984375 -109.828125 C 12.847656 -116.128906 12.65625 -122.460938 12.40625 -128.828125 C 12.15625 -135.203125 11.8125 -141.4375 11.375 -147.53125 Z M 31.671875 -147.53125 "/></g></g></g><g fill="#000000" fill-opacity="1"><g transform="translate(999.152984, 487.959424)"><g><path d="M 100.28125 -73.65625 C 100.28125 -60.414062 99.097656 -48.976562 96.734375 -39.34375 C 94.378906 -29.71875 91.109375 -21.773438 86.921875 -15.515625 C 82.734375 -9.253906 77.8125 -4.617188 72.15625 -1.609375 C 66.5 1.398438 60.414062 2.90625 53.90625 2.90625 C 47.3125 2.90625 41.1875 1.398438 35.53125 -1.609375 C 29.882812 -4.617188 24.96875 -9.253906 20.78125 -15.515625 C 16.59375 -21.773438 13.296875 -29.71875 10.890625 -39.34375 C 8.492188 -48.976562 7.296875 -60.414062 7.296875 -73.65625 C 7.296875 -86.820312 8.492188 -98.21875 10.890625 -107.84375 C 13.296875 -117.476562 16.59375 -125.441406 20.78125 -131.734375 C 24.96875 -138.035156 29.882812 -142.6875 35.53125 -145.6875 C 41.1875 -148.695312 47.3125 -150.203125 53.90625 -150.203125 C 60.414062 -150.203125 66.5 -148.695312 72.15625 -145.6875 C 77.8125 -142.6875 82.734375 -138.035156 86.921875 -131.734375 C 91.109375 -125.441406 94.378906 -117.476562 96.734375 -107.84375 C 99.097656 -98.21875 100.28125 -86.820312 100.28125 -73.65625 Z M 81.8125 -73.65625 C 81.8125 -84.675781 81.09375 -94.191406 79.65625 -102.203125 C 78.226562 -110.222656 76.257812 -116.828125 73.75 -122.015625 C 71.25 -127.210938 68.296875 -131.046875 64.890625 -133.515625 C 61.492188 -135.984375 57.832031 -137.21875 53.90625 -137.21875 C 49.894531 -137.21875 46.1875 -135.984375 42.78125 -133.515625 C 39.382812 -131.046875 36.414062 -127.210938 33.875 -122.015625 C 31.332031 -116.828125 29.34375 -110.222656 27.90625 -102.203125 C 26.476562 -94.191406 25.765625 -84.675781 25.765625 -73.65625 C 25.765625 -62.5625 26.476562 -53.003906 27.90625 -44.984375 C 29.34375 -36.972656 31.332031 -30.390625 33.875 -25.234375 C 36.414062 -20.078125 39.382812 -16.265625 42.78125 -13.796875 C 46.1875 -11.328125 49.894531 -10.09375 53.90625 -10.09375 C 57.832031 -10.09375 61.492188 -11.328125 64.890625 -13.796875 C 68.296875 -16.265625 71.25 -20.078125 73.75 -25.234375 C 76.257812 -30.390625 78.226562 -36.972656 79.65625 -44.984375 C 81.09375 -53.003906 81.8125 -62.5625 81.8125 -73.65625 Z M 81.8125 -73.65625 "/></g></g></g><g fill="#000000" fill-opacity="1"><g transform="translate(715.271443, 112.39289)"><g><path d="M 20.496094 -7.90625 C 20.496094 -11.15625 18.609375 -14.269531 14.902344 -15.496094 L 8.429688 -17.628906 C 6.855469 -18.152344 5.457031 -19.308594 5.457031 -21.40625 C 5.457031 -24.203125 8.8125 -25.671875 11.261719 -25.671875 C 13.1875 -25.671875 15.144531 -24.765625 15.671875 -23.015625 L 18.1875 -23.75 C 17.664062 -26.652344 14.585938 -28.332031 11.261719 -28.332031 C 7.414062 -28.332031 2.660156 -25.953125 2.660156 -21.40625 C 2.660156 -18.257812 4.652344 -15.984375 7.414062 -15.074219 L 13.921875 -12.941406 C 16.195312 -12.207031 17.699219 -9.933594 17.699219 -7.90625 C 17.699219 -5.140625 14.621094 -2.308594 10.984375 -2.308594 C 7.308594 -2.308594 4.546875 -5 4.09375 -7.414062 L 1.398438 -6.679688 C 1.957031 -3.042969 6.085938 0.351562 10.984375 0.351562 C 16.265625 0.351562 20.496094 -3.566406 20.496094 -7.90625 Z M 20.496094 -7.90625 "/></g></g></g><g fill="#000000" fill-opacity="1"><g transform="translate(737.865306, 112.39289)"><g><path d="M 18.539062 -10.492188 C 18.539062 -6.191406 15.214844 -2.449219 11.367188 -2.449219 C 7.519531 -2.449219 4.199219 -6.191406 4.199219 -10.492188 C 4.199219 -14.796875 7.519531 -18.539062 11.367188 -18.539062 C 15.214844 -18.539062 18.539062 -14.796875 18.539062 -10.492188 Z M 21.335938 -10.492188 C 21.335938 -16.472656 16.859375 -21.195312 11.367188 -21.195312 C 5.875 -21.195312 1.398438 -16.472656 1.398438 -10.492188 C 1.398438 -4.511719 5.875 0.210938 11.367188 0.210938 C 16.859375 0.210938 21.335938 -4.511719 21.335938 -10.492188 Z M 21.335938 -10.492188 "/></g></g></g><g fill="#000000" fill-opacity="1"><g transform="translate(760.599073, 112.39289)"><g><path d="M 16.265625 -4.40625 C 14.832031 -3.183594 13.398438 -2.449219 11.019531 -2.449219 C 7.171875 -2.449219 4.199219 -5.769531 4.199219 -10.144531 C 4.199219 -14.515625 7.34375 -18.539062 11.367188 -18.539062 C 13.464844 -18.539062 14.902344 -17.804688 16.125 -17.035156 L 17.59375 -18.816406 C 15.878906 -20.289062 13.710938 -21.195312 11.367188 -21.195312 C 6.121094 -21.195312 1.398438 -16.265625 1.398438 -10.144531 C 1.398438 -4.199219 5.597656 0.210938 11.019531 0.210938 C 13.78125 0.210938 15.914062 -0.734375 17.734375 -2.414062 Z M 16.265625 -4.40625 "/></g></g></g><g fill="#000000" fill-opacity="1"><g transform="translate(779.730409, 112.39289)"><g><path d="M 6.296875 -20.988281 L 3.496094 -20.988281 L 3.496094 0 L 6.296875 0 Z M 6.296875 -27.980469 L 3.496094 -27.980469 L 3.496094 -23.785156 L 6.296875 -23.785156 Z M 6.296875 -27.980469 "/></g></g></g><g fill="#000000" fill-opacity="1"><g transform="translate(789.523417, 112.39289)"><g><path d="M 15.460938 -8.746094 C 15.460938 -5.246094 12.382812 -2.449219 8.882812 -2.449219 C 6.332031 -2.449219 4.199219 -4.6875 4.199219 -9.09375 C 4.199219 -13.292969 6.226562 -18.539062 10.773438 -18.539062 C 12.171875 -18.539062 13.710938 -18.082031 15.460938 -16.929688 Z M 20.113281 0 C 19.238281 -0.945312 18.257812 -2.796875 18.257812 -6.296875 L 18.257812 -18.257812 C 15.671875 -20.289062 13.082031 -21.195312 10.773438 -21.195312 C 4.128906 -21.195312 1.398438 -14.691406 1.398438 -9.09375 C 1.398438 -3.289062 4.96875 0.210938 8.882812 0.210938 C 11.191406 0.210938 14.480469 -1.574219 15.496094 -3.953125 C 15.496094 -3.953125 15.496094 -1.292969 17.140625 0 Z M 20.113281 0 "/></g></g></g><g fill="#000000" fill-opacity="1"><g transform="translate(810.578377, 112.39289)"><g><path d="M 8.148438 0 C 7.277344 -0.945312 6.296875 -2.796875 6.296875 -6.296875 L 6.296875 -27.980469 L 3.496094 -27.980469 L 3.496094 -4.898438 C 3.496094 -3.847656 3.496094 -1.398438 5.175781 0 Z M 8.148438 0 "/></g></g></g><g fill="#000000" fill-opacity="1"><g transform="translate(820.371385, 112.39289)"><g/></g></g><g fill="#000000" fill-opacity="1"><g transform="translate(834.361398, 112.39289)"><g><path d="M 26.234375 -27.980469 L 23.433594 -27.980469 L 14.515625 -12.941406 L 5.597656 -27.980469 L 2.796875 -27.980469 L 2.796875 0 L 5.597656 0 L 5.597656 -22.734375 L 14.515625 -7.800781 L 23.433594 -22.734375 L 23.433594 0 L 26.234375 0 Z M 26.234375 -27.980469 "/></g></g></g><g fill="#000000" fill-opacity="1"><g transform="translate(863.390667, 112.39289)"><g><path d="M 15.109375 -14.691406 C 15.109375 -13.292969 13.957031 -12.695312 10.074219 -11.996094 C 7.976562 -11.613281 6.332031 -11.402344 4.230469 -11.402344 C 4.546875 -15.636719 7.835938 -18.539062 10.984375 -18.539062 C 13.429688 -18.539062 15.109375 -16.578125 15.109375 -14.691406 Z M 17.070312 -5.804688 C 15.179688 -3.671875 12.871094 -2.449219 10.773438 -2.449219 C 7.976562 -2.449219 4.722656 -4.617188 4.230469 -8.746094 C 11.472656 -9.058594 15.214844 -10.386719 16.542969 -11.472656 C 17.664062 -12.382812 17.910156 -13.464844 17.910156 -14.691406 C 17.910156 -18.539062 14.480469 -21.195312 10.984375 -21.195312 C 5.035156 -21.195312 1.398438 -15.320312 1.398438 -9.933594 C 1.398438 -3.777344 5.910156 0.210938 10.773438 0.210938 C 13.570312 0.210938 16.265625 -1.015625 18.433594 -3.742188 Z M 17.070312 -5.804688 "/></g></g></g><g fill="#000000" fill-opacity="1"><g transform="translate(883.221502, 112.39289)"><g><path d="M 15.460938 -8.746094 C 15.460938 -5.246094 12.382812 -2.449219 8.882812 -2.449219 C 6.332031 -2.449219 4.199219 -4.6875 4.199219 -9.09375 C 4.199219 -13.292969 6.226562 -18.539062 10.773438 -18.539062 C 12.171875 -18.539062 13.710938 -18.082031 15.460938 -16.929688 Z M 20.113281 0 C 19.238281 -0.945312 18.257812 -2.796875 18.257812 -6.296875 L 18.257812 -27.980469 L 15.460938 -27.980469 L 15.460938 -19.484375 C 13.957031 -20.707031 12.242188 -21.195312 10.773438 -21.195312 C 4.128906 -21.195312 1.398438 -14.691406 1.398438 -9.09375 C 1.398438 -3.289062 4.96875 0.210938 8.882812 0.210938 C 11.191406 0.210938 14.480469 -1.574219 15.496094 -3.953125 C 15.496094 -3.953125 15.496094 -1.292969 17.140625 0 Z M 20.113281 0 "/></g></g></g><g fill="#000000" fill-opacity="1"><g transform="translate(904.276462, 112.39289)"><g><path d="M 6.296875 -20.988281 L 3.496094 -20.988281 L 3.496094 0 L 6.296875 0 Z M 6.296875 -27.980469 L 3.496094 -27.980469 L 3.496094 -23.785156 L 6.296875 -23.785156 Z M 6.296875 -27.980469 "/></g></g></g><g fill="#000000" fill-opacity="1"><g transform="translate(914.06947, 112.39289)"><g><path d="M 15.460938 -8.746094 C 15.460938 -5.246094 12.382812 -2.449219 8.882812 -2.449219 C 6.332031 -2.449219 4.199219 -4.6875 4.199219 -9.09375 C 4.199219 -13.292969 6.226562 -18.539062 10.773438 -18.539062 C 12.171875 -18.539062 13.710938 -18.082031 15.460938 -16.929688 Z M 20.113281 0 C 19.238281 -0.945312 18.257812 -2.796875 18.257812 -6.296875 L 18.257812 -18.257812 C 15.671875 -20.289062 13.082031 -21.195312 10.773438 -21.195312 C 4.128906 -21.195312 1.398438 -14.691406 1.398438 -9.09375 C 1.398438 -3.289062 4.96875 0.210938 8.882812 0.210938 C 11.191406 0.210938 14.480469 -1.574219 15.496094 -3.953125 C 15.496094 -3.953125 15.496094 -1.292969 17.140625 0 Z M 20.113281 0 "/></g></g></g><g fill="#000000" fill-opacity="1"><g transform="translate(935.124419, 112.39289)"><g/></g></g><g fill="#000000" fill-opacity="1"><g transform="translate(949.114444, 112.39289)"><g><path d="M 26.234375 -27.980469 L 23.433594 -27.980469 L 14.515625 -12.941406 L 5.597656 -27.980469 L 2.796875 -27.980469 L 2.796875 0 L 5.597656 0 L 5.597656 -22.734375 L 14.515625 -7.800781 L 23.433594 -22.734375 L 23.433594 0 L 26.234375 0 Z M 26.234375 -27.980469 "/></g></g></g><g fill="#000000" fill-opacity="1"><g transform="translate(978.143724, 112.39289)"><g><path d="M 15.460938 -8.746094 C 15.460938 -5.246094 12.382812 -2.449219 8.882812 -2.449219 C 6.332031 -2.449219 4.199219 -4.6875 4.199219 -9.09375 C 4.199219 -13.292969 6.226562 -18.539062 10.773438 -18.539062 C 12.171875 -18.539062 13.710938 -18.082031 15.460938 -16.929688 Z M 20.113281 0 C 19.238281 -0.945312 18.257812 -2.796875 18.257812 -6.296875 L 18.257812 -18.257812 C 15.671875 -20.289062 13.082031 -21.195312 10.773438 -21.195312 C 4.128906 -21.195312 1.398438 -14.691406 1.398438 -9.09375 C 1.398438 -3.289062 4.96875 0.210938 8.882812 0.210938 C 11.191406 0.210938 14.480469 -1.574219 15.496094 -3.953125 C 15.496094 -3.953125 15.496094 -1.292969 17.140625 0 Z M 20.113281 0 "/></g></g></g><g fill="#000000" fill-opacity="1"><g transform="translate(999.198673, 112.39289)"><g><path d="M 18.886719 -13.992188 C 18.886719 -18.539062 16.71875 -21.195312 12.523438 -21.195312 C 10.074219 -21.195312 7.484375 -20.007812 5.597656 -17.140625 L 5.597656 -20.988281 L 2.796875 -20.988281 L 2.796875 0 L 5.597656 0 L 5.597656 -11.890625 C 5.597656 -15.738281 9.375 -18.539062 12.523438 -18.539062 C 14.726562 -18.539062 16.089844 -17.140625 16.089844 -13.992188 L 16.089844 0 L 18.886719 0 Z M 18.886719 -13.992188 "/></g></g></g><g fill="#000000" fill-opacity="1"><g transform="translate(1020.883198, 112.39289)"><g><path d="M 15.460938 -8.746094 C 15.460938 -5.246094 12.382812 -2.449219 8.882812 -2.449219 C 6.332031 -2.449219 4.199219 -4.6875 4.199219 -9.09375 C 4.199219 -13.292969 6.226562 -18.539062 10.773438 -18.539062 C 12.171875 -18.539062 13.710938 -18.082031 15.460938 -16.929688 Z M 20.113281 0 C 19.238281 -0.945312 18.257812 -2.796875 18.257812 -6.296875 L 18.257812 -18.257812 C 15.671875 -20.289062 13.082031 -21.195312 10.773438 -21.195312 C 4.128906 -21.195312 1.398438 -14.691406 1.398438 -9.09375 C 1.398438 -3.289062 4.96875 0.210938 8.882812 0.210938 C 11.191406 0.210938 14.480469 -1.574219 15.496094 -3.953125 C 15.496094 -3.953125 15.496094 -1.292969 17.140625 0 Z M 20.113281 0 "/></g></g></g><g fill="#000000" fill-opacity="1"><g transform="translate(1041.938147, 112.39289)"><g><path d="M 15.460938 -10.144531 C 15.460938 -6.472656 12.382812 -3.847656 8.882812 -3.847656 C 6.085938 -3.847656 4.199219 -6.996094 4.199219 -9.445312 C 4.199219 -13.816406 6.574219 -18.539062 10.773438 -18.539062 C 12.171875 -18.539062 13.710938 -18.082031 15.460938 -16.929688 Z M 18.257812 -18.257812 C 15.671875 -20.289062 13.082031 -21.195312 10.773438 -21.195312 C 4.476562 -21.195312 1.398438 -14.691406 1.398438 -9.445312 C 1.398438 -4.371094 5.386719 -1.1875 8.882812 -1.1875 C 12.03125 -1.1875 14.480469 -3.113281 15.460938 -5.246094 L 15.460938 -1.957031 C 15.460938 1.363281 12.628906 4.335938 9.269531 4.335938 C 7.378906 4.335938 5.351562 3.460938 3.53125 1.152344 L 1.152344 2.414062 C 3.671875 5.632812 6.574219 6.996094 9.269531 6.996094 C 14.097656 6.996094 18.257812 2.867188 18.257812 -1.957031 Z M 18.257812 -18.257812 "/></g></g></g><g fill="#000000" fill-opacity="1"><g transform="translate(1062.993096, 112.39289)"><g><path d="M 15.109375 -14.691406 C 15.109375 -13.292969 13.957031 -12.695312 10.074219 -11.996094 C 7.976562 -11.613281 6.332031 -11.402344 4.230469 -11.402344 C 4.546875 -15.636719 7.835938 -18.539062 10.984375 -18.539062 C 13.429688 -18.539062 15.109375 -16.578125 15.109375 -14.691406 Z M 17.070312 -5.804688 C 15.179688 -3.671875 12.871094 -2.449219 10.773438 -2.449219 C 7.976562 -2.449219 4.722656 -4.617188 4.230469 -8.746094 C 11.472656 -9.058594 15.214844 -10.386719 16.542969 -11.472656 C 17.664062 -12.382812 17.910156 -13.464844 17.910156 -14.691406 C 17.910156 -18.539062 14.480469 -21.195312 10.984375 -21.195312 C 5.035156 -21.195312 1.398438 -15.320312 1.398438 -9.933594 C 1.398438 -3.777344 5.910156 0.210938 10.773438 0.210938 C 13.570312 0.210938 16.265625 -1.015625 18.433594 -3.742188 Z M 17.070312 -5.804688 "/></g></g></g><g fill="#000000" fill-opacity="1"><g transform="translate(1082.823942, 112.39289)"><g><path d="M 15.109375 -20.289062 C 14.167969 -20.847656 13.082031 -21.195312 12.03125 -21.195312 C 9.410156 -21.195312 7.378906 -19.796875 5.597656 -16.929688 L 5.597656 -20.988281 L 2.796875 -20.988281 L 2.796875 0 L 5.597656 0 L 5.597656 -12.03125 C 5.597656 -15.53125 8.988281 -18.539062 12.03125 -18.539062 C 12.730469 -18.539062 13.464844 -18.398438 14.097656 -18.046875 Z M 15.109375 -20.289062 "/></g></g></g><g fill="#000000" fill-opacity="1"><g transform="translate(1098.632643, 112.39289)"><g/></g></g><g fill="#000000" fill-opacity="1"><g transform="translate(1112.622668, 112.39289)"><g><path d="M 14.304688 -4.96875 C 13.257812 -3.289062 11.4375 -2.308594 9.515625 -2.308594 C 6.609375 -2.308594 4.199219 -4.863281 4.199219 -7.871094 C 4.199219 -11.089844 7.171875 -13.710938 10.351562 -13.710938 L 14.304688 -13.710938 Z M 21.617188 -3.183594 C 21.125 -2.691406 20.460938 -2.308594 19.726562 -2.308594 C 18.292969 -2.308594 17.105469 -3.777344 17.105469 -5.210938 L 17.105469 -13.710938 L 22 -13.710938 L 22 -16.371094 L 17.105469 -16.371094 L 17.105469 -20.988281 L 14.304688 -20.988281 L 14.304688 -16.371094 L 10.703125 -16.371094 C 8.042969 -16.371094 5.875 -18.46875 5.875 -21.160156 C 5.875 -23.644531 7.519531 -25.671875 9.96875 -25.671875 C 11.121094 -25.671875 12.3125 -25.183594 13.082031 -24.273438 L 15.003906 -26.128906 C 13.710938 -27.597656 11.960938 -28.332031 9.96875 -28.332031 C 5.945312 -28.332031 3.078125 -25.359375 3.078125 -21.160156 C 3.078125 -19.097656 4.230469 -16.371094 6.507812 -15.320312 C 3.113281 -14.199219 1.398438 -10.878906 1.398438 -7.871094 C 1.398438 -3.324219 5.035156 0.351562 9.515625 0.351562 C 11.71875 0.351562 13.921875 -0.488281 15.320312 -2.097656 C 16.335938 -0.453125 17.910156 0.351562 19.726562 0.351562 C 21.230469 0.351562 22.597656 -0.28125 23.503906 -1.292969 Z M 21.617188 -3.183594 "/></g></g></g><g fill="#000000" fill-opacity="1"><g transform="translate(1137.52489, 112.39289)"><g/></g></g><g fill="#000000" fill-opacity="1"><g transform="translate(1151.514915, 112.39289)"><g><path d="M 22.457031 -4.898438 C 20.53125 -3.324219 18.046875 -2.308594 15.390625 -2.308594 C 9.199219 -2.308594 4.199219 -7.625 4.199219 -13.992188 C 4.199219 -20.355469 8.847656 -25.671875 15.039062 -25.671875 C 17.699219 -25.671875 20.183594 -24.660156 22.105469 -23.085938 L 23.785156 -25.183594 C 21.40625 -27.144531 18.363281 -28.332031 15.039062 -28.332031 C 7.308594 -28.332031 1.398438 -21.929688 1.398438 -13.992188 C 1.398438 -6.050781 7.660156 0.351562 15.390625 0.351562 C 18.714844 0.351562 21.757812 -0.839844 24.132812 -2.796875 Z M 22.457031 -4.898438 "/></g></g></g><g fill="#000000" fill-opacity="1"><g transform="translate(1177.046666, 112.39289)"><g><path d="M 18.539062 -10.492188 C 18.539062 -6.191406 15.214844 -2.449219 11.367188 -2.449219 C 7.519531 -2.449219 4.199219 -6.191406 4.199219 -10.492188 C 4.199219 -14.796875 7.519531 -18.539062 11.367188 -18.539062 C 15.214844 -18.539062 18.539062 -14.796875 18.539062 -10.492188 Z M 21.335938 -10.492188 C 21.335938 -16.472656 16.859375 -21.195312 11.367188 -21.195312 C 5.875 -21.195312 1.398438 -16.472656 1.398438 -10.492188 C 1.398438 -4.511719 5.875 0.210938 11.367188 0.210938 C 16.859375 0.210938 21.335938 -4.511719 21.335938 -10.492188 Z M 21.335938 -10.492188 "/></g></g></g><g fill="#000000" fill-opacity="1"><g transform="translate(1199.780422, 112.39289)"><g><path d="M 31.480469 -13.992188 C 31.480469 -18.539062 29.3125 -21.195312 25.113281 -21.195312 C 22.105469 -21.195312 19.902344 -19.9375 18.011719 -17.417969 C 17.140625 -19.832031 15.179688 -21.195312 12.171875 -21.195312 C 9.722656 -21.195312 7.308594 -20.007812 5.597656 -17.140625 L 5.597656 -20.988281 L 2.796875 -20.988281 L 2.796875 0 L 5.597656 0 L 5.597656 -11.890625 C 5.597656 -15.738281 9.023438 -18.539062 12.171875 -18.539062 C 14.375 -18.539062 15.738281 -17.140625 15.738281 -13.992188 L 15.738281 0 L 18.539062 0 L 18.539062 -12.941406 C 18.539062 -16.789062 21.964844 -18.539062 25.113281 -18.539062 C 27.316406 -18.539062 28.683594 -17.140625 28.683594 -13.992188 L 28.683594 0 L 31.480469 0 Z M 31.480469 -13.992188 "/></g></g></g><g fill="#000000" fill-opacity="1"><g transform="translate(1234.05595, 112.39289)"><g><path d="M 31.480469 -13.992188 C 31.480469 -18.539062 29.3125 -21.195312 25.113281 -21.195312 C 22.105469 -21.195312 19.902344 -19.9375 18.011719 -17.417969 C 17.140625 -19.832031 15.179688 -21.195312 12.171875 -21.195312 C 9.722656 -21.195312 7.308594 -20.007812 5.597656 -17.140625 L 5.597656 -20.988281 L 2.796875 -20.988281 L 2.796875 0 L 5.597656 0 L 5.597656 -11.890625 C 5.597656 -15.738281 9.023438 -18.539062 12.171875 -18.539062 C 14.375 -18.539062 15.738281 -17.140625 15.738281 -13.992188 L 15.738281 0 L 18.539062 0 L 18.539062 -12.941406 C 18.539062 -16.789062 21.964844 -18.539062 25.113281 -18.539062 C 27.316406 -18.539062 28.683594 -17.140625 28.683594 -13.992188 L 28.683594 0 L 31.480469 0 Z M 31.480469 -13.992188 "/></g></g></g><g fill="#000000" fill-opacity="1"><g transform="translate(1268.331478, 112.39289)"><g><path d="M 20.742188 0 C 19.867188 -0.945312 18.886719 -2.796875 18.886719 -6.296875 L 18.886719 -20.988281 L 16.089844 -20.988281 L 16.089844 -7.484375 C 16.089844 -4.511719 13.1875 -2.449219 10.492188 -2.449219 C 7.800781 -2.449219 5.597656 -5.527344 5.597656 -8.882812 L 5.597656 -20.988281 L 2.796875 -20.988281 L 2.796875 -8.882812 C 2.796875 -3.777344 5.945312 0.210938 10.492188 0.210938 C 12.835938 0.210938 15.25 -1.363281 16.195312 -3.113281 C 16.335938 -2.0625 16.753906 -0.875 17.769531 0 Z M 20.742188 0 "/></g></g></g><g fill="#000000" fill-opacity="1"><g transform="translate(1290.016002, 112.39289)"><g><path d="M 18.886719 -13.992188 C 18.886719 -18.539062 16.71875 -21.195312 12.523438 -21.195312 C 10.074219 -21.195312 7.484375 -20.007812 5.597656 -17.140625 L 5.597656 -20.988281 L 2.796875 -20.988281 L 2.796875 0 L 5.597656 0 L 5.597656 -11.890625 C 5.597656 -15.738281 9.375 -18.539062 12.523438 -18.539062 C 14.726562 -18.539062 16.089844 -17.140625 16.089844 -13.992188 L 16.089844 0 L 18.886719 0 Z M 18.886719 -13.992188 "/></g></g></g><g fill="#000000" fill-opacity="1"><g transform="translate(1311.700527, 112.39289)"><g><path d="M 6.296875 -20.988281 L 3.496094 -20.988281 L 3.496094 0 L 6.296875 0 Z M 6.296875 -27.980469 L 3.496094 -27.980469 L 3.496094 -23.785156 L 6.296875 -23.785156 Z M 6.296875 -27.980469 "/></g></g></g><g fill="#000000" fill-opacity="1"><g transform="translate(1321.493535, 112.39289)"><g><path d="M 12.347656 -3.183594 C 11.859375 -2.691406 11.054688 -2.449219 10.320312 -2.449219 C 8.882812 -2.449219 7.695312 -3.777344 7.695312 -5.210938 L 7.695312 -18.328125 L 13.292969 -18.328125 L 13.292969 -20.988281 L 7.695312 -20.988281 L 7.695312 -27.980469 L 4.898438 -27.980469 L 4.898438 -20.988281 L 1.398438 -20.988281 L 1.398438 -18.328125 L 4.898438 -18.328125 L 4.898438 -5.210938 C 4.898438 -2.203125 7.308594 0.210938 10.320312 0.210938 C 11.824219 0.210938 13.1875 -0.417969 14.097656 -1.433594 Z M 12.347656 -3.183594 "/></g></g></g><g fill="#000000" fill-opacity="1"><g transform="translate(1336.987449, 112.39289)"><g><path d="M 17.980469 -20.988281 L 10.84375 -3.707031 L 3.707031 -20.988281 L 0.699219 -20.988281 L 9.304688 -0.175781 L 8.078125 2.796875 C 7.101562 5.175781 5.210938 5.804688 5.210938 5.804688 L 6.960938 6.996094 C 6.960938 6.996094 9.375 6.890625 10.597656 3.988281 L 20.988281 -20.988281 Z M 17.980469 -20.988281 "/></g></g></g><g fill="#000000" fill-opacity="1"><g transform="translate(1358.679893, 112.39289)"><g/></g></g><g fill="#000000" fill-opacity="1"><g transform="translate(1209.151353, 146.87605)"><g><path d="M 26.234375 -27.980469 L 23.433594 -27.980469 L 14.515625 -12.941406 L 5.597656 -27.980469 L 2.796875 -27.980469 L 2.796875 0 L 5.597656 0 L 5.597656 -22.734375 L 14.515625 -7.800781 L 23.433594 -22.734375 L 23.433594 0 L 26.234375 0 Z M 26.234375 -27.980469 "/></g></g></g><g fill="#000000" fill-opacity="1"><g transform="translate(1238.180622, 146.87605)"><g><path d="M 15.460938 -8.746094 C 15.460938 -5.246094 12.382812 -2.449219 8.882812 -2.449219 C 6.332031 -2.449219 4.199219 -4.6875 4.199219 -9.09375 C 4.199219 -13.292969 6.226562 -18.539062 10.773438 -18.539062 C 12.171875 -18.539062 13.710938 -18.082031 15.460938 -16.929688 Z M 20.113281 0 C 19.238281 -0.945312 18.257812 -2.796875 18.257812 -6.296875 L 18.257812 -18.257812 C 15.671875 -20.289062 13.082031 -21.195312 10.773438 -21.195312 C 4.128906 -21.195312 1.398438 -14.691406 1.398438 -9.09375 C 1.398438 -3.289062 4.96875 0.210938 8.882812 0.210938 C 11.191406 0.210938 14.480469 -1.574219 15.496094 -3.953125 C 15.496094 -3.953125 15.496094 -1.292969 17.140625 0 Z M 20.113281 0 "/></g></g></g><g fill="#000000" fill-opacity="1"><g transform="translate(1259.235583, 146.87605)"><g><path d="M 18.886719 -13.992188 C 18.886719 -18.539062 16.71875 -21.195312 12.523438 -21.195312 C 10.074219 -21.195312 7.484375 -20.007812 5.597656 -17.140625 L 5.597656 -20.988281 L 2.796875 -20.988281 L 2.796875 0 L 5.597656 0 L 5.597656 -11.890625 C 5.597656 -15.738281 9.375 -18.539062 12.523438 -18.539062 C 14.726562 -18.539062 16.089844 -17.140625 16.089844 -13.992188 L 16.089844 0 L 18.886719 0 Z M 18.886719 -13.992188 "/></g></g></g><g fill="#000000" fill-opacity="1"><g transform="translate(1280.920096, 146.87605)"><g><path d="M 15.460938 -8.746094 C 15.460938 -5.246094 12.382812 -2.449219 8.882812 -2.449219 C 6.332031 -2.449219 4.199219 -4.6875 4.199219 -9.09375 C 4.199219 -13.292969 6.226562 -18.539062 10.773438 -18.539062 C 12.171875 -18.539062 13.710938 -18.082031 15.460938 -16.929688 Z M 20.113281 0 C 19.238281 -0.945312 18.257812 -2.796875 18.257812 -6.296875 L 18.257812 -18.257812 C 15.671875 -20.289062 13.082031 -21.195312 10.773438 -21.195312 C 4.128906 -21.195312 1.398438 -14.691406 1.398438 -9.09375 C 1.398438 -3.289062 4.96875 0.210938 8.882812 0.210938 C 11.191406 0.210938 14.480469 -1.574219 15.496094 -3.953125 C 15.496094 -3.953125 15.496094 -1.292969 17.140625 0 Z M 20.113281 0 "/></g></g></g><g fill="#000000" fill-opacity="1"><g transform="translate(1301.975056, 146.87605)"><g><path d="M 15.460938 -10.144531 C 15.460938 -6.472656 12.382812 -3.847656 8.882812 -3.847656 C 6.085938 -3.847656 4.199219 -6.996094 4.199219 -9.445312 C 4.199219 -13.816406 6.574219 -18.539062 10.773438 -18.539062 C 12.171875 -18.539062 13.710938 -18.082031 15.460938 -16.929688 Z M 18.257812 -18.257812 C 15.671875 -20.289062 13.082031 -21.195312 10.773438 -21.195312 C 4.476562 -21.195312 1.398438 -14.691406 1.398438 -9.445312 C 1.398438 -4.371094 5.386719 -1.1875 8.882812 -1.1875 C 12.03125 -1.1875 14.480469 -3.113281 15.460938 -5.246094 L 15.460938 -1.957031 C 15.460938 1.363281 12.628906 4.335938 9.269531 4.335938 C 7.378906 4.335938 5.351562 3.460938 3.53125 1.152344 L 1.152344 2.414062 C 3.671875 5.632812 6.574219 6.996094 9.269531 6.996094 C 14.097656 6.996094 18.257812 2.867188 18.257812 -1.957031 Z M 18.257812 -18.257812 "/></g></g></g><g fill="#000000" fill-opacity="1"><g transform="translate(1323.030016, 146.87605)"><g><path d="M 15.109375 -14.691406 C 15.109375 -13.292969 13.957031 -12.695312 10.074219 -11.996094 C 7.976562 -11.613281 6.332031 -11.402344 4.230469 -11.402344 C 4.546875 -15.636719 7.835938 -18.539062 10.984375 -18.539062 C 13.429688 -18.539062 15.109375 -16.578125 15.109375 -14.691406 Z M 17.070312 -5.804688 C 15.179688 -3.671875 12.871094 -2.449219 10.773438 -2.449219 C 7.976562 -2.449219 4.722656 -4.617188 4.230469 -8.746094 C 11.472656 -9.058594 15.214844 -10.386719 16.542969 -11.472656 C 17.664062 -12.382812 17.910156 -13.464844 17.910156 -14.691406 C 17.910156 -18.539062 14.480469 -21.195312 10.984375 -21.195312 C 5.035156 -21.195312 1.398438 -15.320312 1.398438 -9.933594 C 1.398438 -3.777344 5.910156 0.210938 10.773438 0.210938 C 13.570312 0.210938 16.265625 -1.015625 18.433594 -3.742188 Z M 17.070312 -5.804688 "/></g></g></g><g fill="#000000" fill-opacity="1"><g transform="translate(1342.860851, 146.87605)"><g><path d="M 15.109375 -20.289062 C 14.167969 -20.847656 13.082031 -21.195312 12.03125 -21.195312 C 9.410156 -21.195312 7.378906 -19.796875 5.597656 -16.929688 L 5.597656 -20.988281 L 2.796875 -20.988281 L 2.796875 0 L 5.597656 0 L 5.597656 -12.03125 C 5.597656 -15.53125 8.988281 -18.539062 12.03125 -18.539062 C 12.730469 -18.539062 13.464844 -18.398438 14.097656 -18.046875 Z M 15.109375 -20.289062 "/></g></g></g><g fill="#000000" fill-opacity="1"><g transform="translate(1358.679893, 146.87605)"><g/></g></g><g fill="#000000" fill-opacity="1"><g transform="translate(112.547182, 728.835343)"><g><path d="M -20.289062 -18.1875 C -17.488281 -18.1875 -15.25 -15.949219 -15.25 -13.152344 L -15.25 -5.597656 L -25.324219 -5.597656 L -25.324219 -13.152344 C -25.324219 -15.949219 -23.085938 -18.1875 -20.289062 -18.1875 Z M -13.464844 -16.40625 C -14.621094 -19.273438 -17.175781 -20.988281 -20.289062 -20.988281 C -24.554688 -20.988281 -27.980469 -17.210938 -27.980469 -12.941406 L -27.980469 -2.796875 L 0 -2.796875 L 0 -5.597656 L -12.59375 -5.597656 L -12.59375 -13.710938 L 0 -20.007812 L 0 -23.085938 Z M -13.464844 -16.40625 "/></g></g></g><g fill="#000000" fill-opacity="1"><g transform="translate(112.547182, 703.653325)"><g><path d="M -27.980469 -26.234375 L -27.980469 -23.433594 L -12.941406 -14.515625 L -27.980469 -5.597656 L -27.980469 -2.796875 L 0 -2.796875 L 0 -5.597656 L -22.734375 -5.597656 L -7.800781 -14.515625 L -22.734375 -23.433594 L 0 -23.433594 L 0 -26.234375 Z M -27.980469 -26.234375 "/></g></g></g><g fill="#000000" fill-opacity="1"><g transform="translate(112.547182, 674.624056)"><g/></g></g><g fill="#000000" fill-opacity="1"><g transform="translate(112.547182, 660.634043)"><g><path d="M -27.980469 -26.234375 L -27.980469 -23.433594 L -12.941406 -14.515625 L -27.980469 -5.597656 L -27.980469 -2.796875 L 0 -2.796875 L 0 -5.597656 L -22.734375 -5.597656 L -7.800781 -14.515625 L -22.734375 -23.433594 L 0 -23.433594 L 0 -26.234375 Z M -27.980469 -26.234375 "/></g></g></g><g fill="#000000" fill-opacity="1"><g transform="translate(112.547182, 631.604774)"><g><path d="M -8.746094 -15.460938 C -5.246094 -15.460938 -2.449219 -12.382812 -2.449219 -8.882812 C -2.449219 -6.332031 -4.6875 -4.199219 -9.09375 -4.199219 C -13.292969 -4.199219 -18.539062 -6.226562 -18.539062 -10.773438 C -18.539062 -12.171875 -18.082031 -13.710938 -16.929688 -15.460938 Z M 0 -20.113281 C -0.945312 -19.238281 -2.796875 -18.257812 -6.296875 -18.257812 L -18.257812 -18.257812 C -20.289062 -15.671875 -21.195312 -13.082031 -21.195312 -10.773438 C -21.195312 -4.128906 -14.691406 -1.398438 -9.09375 -1.398438 C -3.289062 -1.398438 0.210938 -4.96875 0.210938 -8.882812 C 0.210938 -11.191406 -1.574219 -14.480469 -3.953125 -15.496094 C -3.953125 -15.496094 -1.292969 -15.496094 0 -17.140625 Z M 0 -20.113281 "/></g></g></g><g fill="#000000" fill-opacity="1"><g transform="translate(112.547182, 610.549813)"><g><path d="M -20.289062 -15.109375 C -20.847656 -14.167969 -21.195312 -13.082031 -21.195312 -12.03125 C -21.195312 -9.410156 -19.796875 -7.378906 -16.929688 -5.597656 L -20.988281 -5.597656 L -20.988281 -2.796875 L 0 -2.796875 L 0 -5.597656 L -12.03125 -5.597656 C -15.53125 -5.597656 -18.539062 -8.988281 -18.539062 -12.03125 C -18.539062 -12.730469 -18.398438 -13.464844 -18.046875 -14.097656 Z M -20.289062 -15.109375 "/></g></g></g><g fill="#000000" fill-opacity="1"><g transform="translate(112.547182, 594.741101)"><g><path d="M -11.960938 -9.304688 L -20.988281 -16.789062 L -20.988281 -13.257812 L -11.648438 -5.597656 L -27.980469 -5.597656 L -27.980469 -2.796875 L 0 -2.796875 L 0 -5.597656 L -7.449219 -5.597656 L -9.828125 -7.554688 L 0 -15.671875 L 0 -19.167969 Z M -11.960938 -9.304688 "/></g></g></g><g fill="#000000" fill-opacity="1"><g transform="translate(112.547182, 575.574786)"><g><path d="M -14.691406 -15.109375 C -13.292969 -15.109375 -12.695312 -13.957031 -11.996094 -10.074219 C -11.613281 -7.976562 -11.402344 -6.332031 -11.402344 -4.230469 C -15.636719 -4.546875 -18.539062 -7.835938 -18.539062 -10.984375 C -18.539062 -13.429688 -16.578125 -15.109375 -14.691406 -15.109375 Z M -5.804688 -17.070312 C -3.671875 -15.179688 -2.449219 -12.871094 -2.449219 -10.773438 C -2.449219 -7.976562 -4.617188 -4.722656 -8.746094 -4.230469 C -9.058594 -11.472656 -10.386719 -15.214844 -11.472656 -16.542969 C -12.382812 -17.664062 -13.464844 -17.910156 -14.691406 -17.910156 C -18.539062 -17.910156 -21.195312 -14.480469 -21.195312 -10.984375 C -21.195312 -5.035156 -15.320312 -1.398438 -9.933594 -1.398438 C -3.777344 -1.398438 0.210938 -5.910156 0.210938 -10.773438 C 0.210938 -13.570312 -1.015625 -16.265625 -3.742188 -18.433594 Z M -5.804688 -17.070312 "/></g></g></g><g fill="#000000" fill-opacity="1"><g transform="translate(112.547182, 555.743952)"><g><path d="M -3.183594 -12.347656 C -2.691406 -11.859375 -2.449219 -11.054688 -2.449219 -10.320312 C -2.449219 -8.882812 -3.777344 -7.695312 -5.210938 -7.695312 L -18.328125 -7.695312 L -18.328125 -13.292969 L -20.988281 -13.292969 L -20.988281 -7.695312 L -27.980469 -7.695312 L -27.980469 -4.898438 L -20.988281 -4.898438 L -20.988281 -1.398438 L -18.328125 -1.398438 L -18.328125 -4.898438 L -5.210938 -4.898438 C -2.203125 -4.898438 0.210938 -7.308594 0.210938 -10.320312 C 0.210938 -11.824219 -0.417969 -13.1875 -1.433594 -14.097656 Z M -3.183594 -12.347656 "/></g></g></g><g fill="#000000" fill-opacity="1"><g transform="translate(112.547182, 540.250015)"><g><path d="M -20.988281 -6.296875 L -20.988281 -3.496094 L 0 -3.496094 L 0 -6.296875 Z M -27.980469 -6.296875 L -27.980469 -3.496094 L -23.785156 -3.496094 L -23.785156 -6.296875 Z M -27.980469 -6.296875 "/></g></g></g><g fill="#000000" fill-opacity="1"><g transform="translate(112.547182, 530.457019)"><g><path d="M -13.992188 -18.886719 C -18.539062 -18.886719 -21.195312 -16.71875 -21.195312 -12.523438 C -21.195312 -10.074219 -20.007812 -7.484375 -17.140625 -5.597656 L -20.988281 -5.597656 L -20.988281 -2.796875 L 0 -2.796875 L 0 -5.597656 L -11.890625 -5.597656 C -15.738281 -5.597656 -18.539062 -9.375 -18.539062 -12.523438 C -18.539062 -14.726562 -17.140625 -16.089844 -13.992188 -16.089844 L 0 -16.089844 L 0 -18.886719 Z M -13.992188 -18.886719 "/></g></g></g><g fill="#000000" fill-opacity="1"><g transform="translate(112.547182, 508.772494)"><g><path d="M -10.144531 -15.460938 C -6.472656 -15.460938 -3.847656 -12.382812 -3.847656 -8.882812 C -3.847656 -6.085938 -6.996094 -4.199219 -9.445312 -4.199219 C -13.816406 -4.199219 -18.539062 -6.574219 -18.539062 -10.773438 C -18.539062 -12.171875 -18.082031 -13.710938 -16.929688 -15.460938 Z M -18.257812 -18.257812 C -20.289062 -15.671875 -21.195312 -13.082031 -21.195312 -10.773438 C -21.195312 -4.476562 -14.691406 -1.398438 -9.445312 -1.398438 C -4.371094 -1.398438 -1.1875 -5.386719 -1.1875 -8.882812 C -1.1875 -12.03125 -3.113281 -14.480469 -5.246094 -15.460938 L -1.957031 -15.460938 C 1.363281 -15.460938 4.335938 -12.628906 4.335938 -9.269531 C 4.335938 -7.378906 3.460938 -5.351562 1.152344 -3.53125 L 2.414062 -1.152344 C 5.632812 -3.671875 6.996094 -6.574219 6.996094 -9.269531 C 6.996094 -14.097656 2.867188 -18.257812 -1.957031 -18.257812 Z M -18.257812 -18.257812 "/></g></g></g><g fill="#000000" fill-opacity="1"><g transform="translate(112.547182, 487.717545)"><g/></g></g><g fill="#000000" fill-opacity="1"><g transform="translate(112.547182, 473.72752)"><g><path d="M -13.992188 -20.988281 C -7.800781 -20.988281 -2.660156 -15.984375 -2.660156 -9.792969 L -2.660156 -5.597656 L -25.324219 -5.597656 L -25.324219 -9.445312 C -25.324219 -15.636719 -20.183594 -20.988281 -13.992188 -20.988281 Z M -13.992188 -23.785156 C -21.722656 -23.785156 -27.980469 -17.175781 -27.980469 -9.445312 L -27.980469 -2.796875 L 0 -2.796875 L 0 -9.792969 C 0 -17.523438 -6.261719 -23.785156 -13.992188 -23.785156 Z M -13.992188 -23.785156 "/></g></g></g><g fill="#000000" fill-opacity="1"><g transform="translate(112.547182, 448.545513)"><g><path d="M -20.988281 -6.296875 L -20.988281 -3.496094 L 0 -3.496094 L 0 -6.296875 Z M -27.980469 -6.296875 L -27.980469 -3.496094 L -23.785156 -3.496094 L -23.785156 -6.296875 Z M -27.980469 -6.296875 "/></g></g></g><g fill="#000000" fill-opacity="1"><g transform="translate(112.547182, 438.752504)"><g><path d="M -10.144531 -15.460938 C -6.472656 -15.460938 -3.847656 -12.382812 -3.847656 -8.882812 C -3.847656 -6.085938 -6.996094 -4.199219 -9.445312 -4.199219 C -13.816406 -4.199219 -18.539062 -6.574219 -18.539062 -10.773438 C -18.539062 -12.171875 -18.082031 -13.710938 -16.929688 -15.460938 Z M -18.257812 -18.257812 C -20.289062 -15.671875 -21.195312 -13.082031 -21.195312 -10.773438 C -21.195312 -4.476562 -14.691406 -1.398438 -9.445312 -1.398438 C -4.371094 -1.398438 -1.1875 -5.386719 -1.1875 -8.882812 C -1.1875 -12.03125 -3.113281 -14.480469 -5.246094 -15.460938 L -1.957031 -15.460938 C 1.363281 -15.460938 4.335938 -12.628906 4.335938 -9.269531 C 4.335938 -7.378906 3.460938 -5.351562 1.152344 -3.53125 L 2.414062 -1.152344 C 5.632812 -3.671875 6.996094 -6.574219 6.996094 -9.269531 C 6.996094 -14.097656 2.867188 -18.257812 -1.957031 -18.257812 Z M -18.257812 -18.257812 "/></g></g></g><g fill="#000000" fill-opacity="1"><g transform="translate(112.547182, 417.697555)"><g><path d="M -20.988281 -6.296875 L -20.988281 -3.496094 L 0 -3.496094 L 0 -6.296875 Z M -27.980469 -6.296875 L -27.980469 -3.496094 L -23.785156 -3.496094 L -23.785156 -6.296875 Z M -27.980469 -6.296875 "/></g></g></g><g fill="#000000" fill-opacity="1"><g transform="translate(112.547182, 407.904547)"><g><path d="M -3.183594 -12.347656 C -2.691406 -11.859375 -2.449219 -11.054688 -2.449219 -10.320312 C -2.449219 -8.882812 -3.777344 -7.695312 -5.210938 -7.695312 L -18.328125 -7.695312 L -18.328125 -13.292969 L -20.988281 -13.292969 L -20.988281 -7.695312 L -27.980469 -7.695312 L -27.980469 -4.898438 L -20.988281 -4.898438 L -20.988281 -1.398438 L -18.328125 -1.398438 L -18.328125 -4.898438 L -5.210938 -4.898438 C -2.203125 -4.898438 0.210938 -7.308594 0.210938 -10.320312 C 0.210938 -11.824219 -0.417969 -13.1875 -1.433594 -14.097656 Z M -3.183594 -12.347656 "/></g></g></g><g fill="#000000" fill-opacity="1"><g transform="translate(112.547182, 392.410611)"><g><path d="M -8.746094 -15.460938 C -5.246094 -15.460938 -2.449219 -12.382812 -2.449219 -8.882812 C -2.449219 -6.332031 -4.6875 -4.199219 -9.09375 -4.199219 C -13.292969 -4.199219 -18.539062 -6.226562 -18.539062 -10.773438 C -18.539062 -12.171875 -18.082031 -13.710938 -16.929688 -15.460938 Z M 0 -20.113281 C -0.945312 -19.238281 -2.796875 -18.257812 -6.296875 -18.257812 L -18.257812 -18.257812 C -20.289062 -15.671875 -21.195312 -13.082031 -21.195312 -10.773438 C -21.195312 -4.128906 -14.691406 -1.398438 -9.09375 -1.398438 C -3.289062 -1.398438 0.210938 -4.96875 0.210938 -8.882812 C 0.210938 -11.191406 -1.574219 -14.480469 -3.953125 -15.496094 C -3.953125 -15.496094 -1.292969 -15.496094 0 -17.140625 Z M 0 -20.113281 "/></g></g></g><g fill="#000000" fill-opacity="1"><g transform="translate(112.547182, 371.355638)"><g><path d="M 0 -8.148438 C -0.945312 -7.277344 -2.796875 -6.296875 -6.296875 -6.296875 L -27.980469 -6.296875 L -27.980469 -3.496094 L -4.898438 -3.496094 C -3.847656 -3.496094 -1.398438 -3.496094 0 -5.175781 Z M 0 -8.148438 "/></g></g></g><path stroke-linecap="round" transform="matrix(0.609009, 0, 0, 0.609009, 81.311861, 81.158138)" fill="none" stroke-linejoin="miter" d="M 2.502554 2.498405 L 849.499029 2.498405 " stroke="#000000" stroke-width="5" stroke-opacity="1" stroke-miterlimit="4"/><path stroke-linecap="round" transform="matrix(0, 0.609009, -0.609009, 0, 84.355826, 81.159215)" fill="none" stroke-linejoin="miter" d="M 2.503049 2.502091 L 224.444194 2.502091 " stroke="#000000" stroke-width="5" stroke-opacity="1" stroke-miterlimit="4"/><path stroke-linecap="butt" transform="matrix(0.749995, -0.00264854, 0.00264854, 0.749995, 827.990461, 726.591895)" fill="none" stroke-linejoin="miter" d="M 0.00211626 3.002499 L 707.589928 3.001268 " stroke="#000000" stroke-width="6" stroke-opacity="1" stroke-miterlimit="4"/></svg>