<svg xmlns="http://www.w3.org/2000/svg" xmlns:xlink="http://www.w3.org/1999/xlink" width="1920" zoomAndPan="magnify" viewBox="0 0 1440 809.999993" height="1080" preserveAspectRatio="xMidYMid meet" version="1.0"><defs><g/><clipPath id="2dfcce7436"><path d="M 578.125 447.097656 L 662.628906 447.097656 L 662.628906 531.601562 L 578.125 531.601562 Z M 578.125 447.097656 " clip-rule="nonzero"/></clipPath><clipPath id="d52aef6555"><path d="M 620.378906 447.097656 C 597.042969 447.097656 578.125 466.015625 578.125 489.351562 C 578.125 512.6875 597.042969 531.601562 620.378906 531.601562 C 643.710938 531.601562 662.628906 512.6875 662.628906 489.351562 C 662.628906 466.015625 643.710938 447.097656 620.378906 447.097656 Z M 620.378906 447.097656 " clip-rule="nonzero"/></clipPath><clipPath id="8003694cee"><path d="M 689.714844 698.425781 L 751 698.425781 L 751 759.925781 L 689.714844 759.925781 Z M 689.714844 698.425781 " clip-rule="nonzero"/></clipPath><clipPath id="57c4547d31"><path d="M 531.234375 698.425781 L 592.734375 698.425781 L 592.734375 759.925781 L 531.234375 759.925781 Z M 531.234375 698.425781 " clip-rule="nonzero"/></clipPath><clipPath id="37589ddec9"><path d="M 847.617188 698.425781 L 909 698.425781 L 909 759.925781 L 847.617188 759.925781 Z M 847.617188 698.425781 " clip-rule="nonzero"/></clipPath></defs><rect x="-144" width="1728" fill="#ffffff" y="-80.999999" height="971.999992" fill-opacity="1"/><rect x="-144" width="1728" fill="#ffffff" y="-80.999999" height="971.999992" fill-opacity="1"/><path fill="#ffe6ee" d="M -28.957031 -8.6875 L 1439.957031 -8.6875 L 1439.957031 405 L -28.957031 405 Z M -28.957031 -8.6875 " fill-opacity="1" fill-rule="nonzero"/><g fill="#000000" fill-opacity="1"><g transform="translate(610.676353, 516.877851)"><g><path d="M 0.800781 -28.019531 L 0.800781 -27.617188 C 2.28125 -27.617188 3.320312 -27.417969 4.242188 -26.617188 L 4.242188 -3.761719 C 4.242188 -0.800781 3.84375 -0.398438 0.878906 -0.398438 L 0.878906 0 L 8.003906 0 L 8.003906 -0.398438 C 5.042969 -0.398438 4.644531 -0.800781 4.644531 -3.761719 L 4.644531 -26.214844 C 5.203125 -25.617188 5.722656 -24.734375 6.324219 -23.535156 L 18.011719 0.398438 L 18.410156 0.398438 L 31.699219 -27.136719 L 31.699219 -3.761719 C 31.699219 -0.800781 31.300781 -0.398438 28.339844 -0.398438 L 28.339844 0 L 42.105469 0 L 42.105469 -0.398438 C 39.144531 -0.398438 38.746094 -0.800781 38.746094 -3.761719 L 38.746094 -24.253906 C 38.746094 -27.21875 39.144531 -27.617188 42.105469 -27.617188 L 42.105469 -28.019531 L 31.621094 -28.019531 L 21.933594 -8.003906 L 12.007812 -28.019531 Z M 0.800781 -28.019531 "/></g></g></g><g clip-path="url(#2dfcce7436)"><g clip-path="url(#d52aef6555)"><path stroke-linecap="butt" transform="matrix(0.75, 0, 0, 0.75, 578.125297, 447.099142)" fill="none" stroke-linejoin="miter" d="M 56.338148 -0.00198034 C 25.223563 -0.00198034 -0.000396183 25.221979 -0.000396183 56.336564 C -0.000396183 87.451149 25.223563 112.6699 56.338148 112.6699 C 87.447525 112.6699 112.671484 87.451149 112.671484 56.336564 C 112.671484 25.221979 87.447525 -0.00198034 56.338148 -0.00198034 Z M 56.338148 -0.00198034 " stroke="#000000" stroke-width="4" stroke-opacity="1" stroke-miterlimit="4"/></g></g><g fill="#000000" fill-opacity="1"><g transform="translate(590.879803, 491.388148)"><g><path d="M 11.289062 -28.019531 L 0.800781 -28.019531 L 0.800781 -27.617188 C 3.761719 -27.617188 4.203125 -27.21875 4.203125 -24.253906 L 4.203125 -3.761719 C 4.203125 -0.800781 3.761719 -0.398438 0.800781 -0.398438 L 0.800781 0 L 14.648438 0 L 14.648438 -0.398438 C 11.6875 -0.398438 11.289062 -0.800781 11.289062 -3.761719 L 11.289062 -11.847656 L 16.332031 -11.847656 C 18.292969 -11.847656 19.453125 -10.765625 20.375 -9.207031 L 23.414062 -4.003906 C 25.015625 -1.320312 26.976562 0 30.058594 0 L 37.222656 0 L 37.222656 -0.398438 C 34.300781 -0.398438 33.101562 -1.199219 31.980469 -3.203125 L 28.980469 -8.40625 C 28.019531 -10.125 26.695312 -11.40625 25.054688 -11.925781 C 30.097656 -12.488281 32.019531 -16.089844 32.019531 -19.933594 C 32.019531 -24.09375 29.738281 -28.019531 23.574219 -28.019531 Z M 11.289062 -27.617188 L 17.453125 -27.617188 C 22.414062 -27.617188 24.894531 -25.457031 24.894531 -19.933594 C 24.894531 -14.730469 22.335938 -12.167969 17.53125 -12.167969 L 11.289062 -12.167969 Z M 11.289062 -27.617188 "/></g></g></g><path stroke-linecap="butt" transform="matrix(0.504504, -0.554955, 0.554955, 0.504504, 579.908113, 527.593121)" fill="none" stroke-linejoin="miter" d="M 0.00190898 7.498327 L 167.245183 7.498419 " stroke="#ffffff" stroke-width="15" stroke-opacity="1" stroke-miterlimit="4"/><path stroke-linecap="butt" transform="matrix(0.496814, -0.56185, 0.56185, 0.496814, 588.485953, 528.984833)" fill="none" stroke-linejoin="miter" d="M -0.00223948 0.499751 L 130.232552 0.500844 " stroke="#000000" stroke-width="1" stroke-opacity="1" stroke-miterlimit="4"/><g fill="#000000" fill-opacity="1"><g transform="translate(672.799235, 483.161966)"><g><path d="M 19.765625 -20.375 L 13.277344 -6.28125 L 6.859375 -20.375 L 2.003906 -20.375 L 2.003906 0 L 6.488281 0 L 6.488281 -12.15625 L 11.988281 0 L 14.570312 0 L 20.105469 -12.125 L 20.105469 0 L 24.585938 0 L 24.585938 -20.375 Z M 19.765625 -20.375 "/></g></g></g><g fill="#000000" fill-opacity="1"><g transform="translate(700.90987, 483.161966)"><g><path d="M 14.46875 0 L 19.257812 0 L 11.921875 -20.375 L 6.894531 -20.375 L -0.441406 0 L 4.347656 0 L 5.605469 -3.835938 L 13.210938 -3.835938 Z M 6.792969 -7.574219 L 9.40625 -15.65625 L 12.023438 -7.574219 Z M 6.792969 -7.574219 "/></g></g></g><g fill="#000000" fill-opacity="1"><g transform="translate(721.244124, 483.161966)"><g><path d="M 12.632812 -8.386719 C 15.042969 -9.101562 16.742188 -11.34375 16.742188 -14.128906 C 16.742188 -17.59375 14.160156 -20.375 10.664062 -20.375 L 2.003906 -20.375 L 2.003906 0 L 6.488281 0 L 6.488281 -7.878906 L 8.285156 -7.878906 L 13.3125 0 L 18.339844 0 Z M 9.984375 -11.582031 L 6.488281 -11.582031 L 6.488281 -16.402344 L 9.984375 -16.402344 C 11.410156 -16.402344 12.464844 -15.382812 12.464844 -13.992188 C 12.464844 -12.566406 11.410156 -11.582031 9.984375 -11.582031 Z M 9.984375 -11.582031 "/></g></g></g><g fill="#000000" fill-opacity="1"><g transform="translate(740.933174, 483.161966)"><g><path d="M 14.738281 0 L 20.714844 0 L 10.902344 -11.308594 L 19.699219 -20.375 L 13.925781 -20.375 L 7.269531 -13.175781 L 6.488281 -13.175781 L 6.488281 -20.375 L 2.003906 -20.375 L 2.003906 0 L 6.488281 0 L 6.488281 -9.304688 L 7.132812 -9.304688 Z M 14.738281 0 "/></g></g></g><g fill="#000000" fill-opacity="1"><g transform="translate(762.455961, 483.161966)"><g><path d="M 14.433594 -16.4375 L 14.433594 -20.375 L 2.171875 -20.375 L 2.171875 0 L 14.433594 0 L 14.433594 -3.941406 L 6.65625 -3.941406 L 6.65625 -8.21875 L 13.3125 -8.21875 L 13.3125 -12.15625 L 6.65625 -12.15625 L 6.65625 -16.4375 Z M 14.433594 -16.4375 "/></g></g></g><g fill="#000000" fill-opacity="1"><g transform="translate(779.801911, 483.161966)"><g><path d="M 14.570312 -20.375 L -0.167969 -20.375 L -0.167969 -16.402344 L 4.992188 -16.402344 L 4.992188 0 L 9.441406 0 L 9.441406 -16.402344 L 14.570312 -16.402344 Z M 14.570312 -20.375 "/></g></g></g><g fill="#000000" fill-opacity="1"><g transform="translate(795.721625, 483.161966)"><g><path d="M 2.171875 0 L 6.65625 0 L 6.65625 -20.375 L 2.171875 -20.375 Z M 2.171875 0 "/></g></g></g><g fill="#000000" fill-opacity="1"><g transform="translate(806.03827, 483.161966)"><g><path d="M 16.640625 -20.375 L 16.640625 -6.894531 L 6.621094 -20.375 L 2.003906 -20.375 L 2.003906 0 L 6.488281 0 L 6.488281 -13.515625 L 16.472656 0 L 21.089844 0 L 21.089844 -20.375 Z M 16.640625 -20.375 "/></g></g></g><g fill="#000000" fill-opacity="1"><g transform="translate(830.685198, 483.161966)"><g><path d="M 11.714844 -11.171875 L 11.714844 -7.675781 L 17.320312 -7.675781 C 16.371094 -5.535156 14.261719 -4.109375 11.75 -4.109375 C 8.320312 -4.109375 5.671875 -6.757812 5.671875 -10.1875 C 5.671875 -13.617188 8.320312 -16.265625 11.75 -16.265625 C 14.160156 -16.265625 16.132812 -14.976562 17.148438 -13.042969 L 21.023438 -15.042969 C 19.257812 -18.371094 15.757812 -20.648438 11.75 -20.648438 C 5.941406 -20.648438 1.289062 -15.960938 1.289062 -10.1875 C 1.289062 -4.414062 5.941406 0.273438 11.75 0.273438 C 17.523438 0.273438 22.210938 -4.414062 22.210938 -10.1875 L 22.210938 -11.171875 Z M 11.714844 -11.171875 "/></g></g></g><g fill="#000000" fill-opacity="1"><g transform="translate(705.031746, 516.970596)"><g><path d="M 2.003906 0 L 8.726562 0 C 14.332031 0 18.917969 -4.550781 18.917969 -10.1875 C 18.917969 -15.824219 14.332031 -20.375 8.726562 -20.375 L 2.003906 -20.375 Z M 6.488281 -3.972656 L 6.488281 -16.402344 L 8.695312 -16.402344 C 11.921875 -16.402344 14.433594 -13.71875 14.433594 -10.1875 C 14.433594 -6.65625 11.921875 -3.972656 8.695312 -3.972656 Z M 6.488281 -3.972656 "/></g></g></g><g fill="#000000" fill-opacity="1"><g transform="translate(726.724316, 516.970596)"><g><path d="M 2.171875 0 L 6.65625 0 L 6.65625 -20.375 L 2.171875 -20.375 Z M 2.171875 0 "/></g></g></g><g fill="#000000" fill-opacity="1"><g transform="translate(737.040957, 516.970596)"><g><path d="M 11.714844 -11.171875 L 11.714844 -7.675781 L 17.320312 -7.675781 C 16.371094 -5.535156 14.261719 -4.109375 11.75 -4.109375 C 8.320312 -4.109375 5.671875 -6.757812 5.671875 -10.1875 C 5.671875 -13.617188 8.320312 -16.265625 11.75 -16.265625 C 14.160156 -16.265625 16.132812 -14.976562 17.148438 -13.042969 L 21.023438 -15.042969 C 19.257812 -18.371094 15.757812 -20.648438 11.75 -20.648438 C 5.941406 -20.648438 1.289062 -15.960938 1.289062 -10.1875 C 1.289062 -4.414062 5.941406 0.273438 11.75 0.273438 C 17.523438 0.273438 22.210938 -4.414062 22.210938 -10.1875 L 22.210938 -11.171875 Z M 11.714844 -11.171875 "/></g></g></g><g fill="#000000" fill-opacity="1"><g transform="translate(762.061419, 516.970596)"><g><path d="M 2.171875 0 L 6.65625 0 L 6.65625 -20.375 L 2.171875 -20.375 Z M 2.171875 0 "/></g></g></g><g fill="#000000" fill-opacity="1"><g transform="translate(772.37806, 516.970596)"><g><path d="M 14.570312 -20.375 L -0.167969 -20.375 L -0.167969 -16.402344 L 4.992188 -16.402344 L 4.992188 0 L 9.441406 0 L 9.441406 -16.402344 L 14.570312 -16.402344 Z M 14.570312 -20.375 "/></g></g></g><g fill="#000000" fill-opacity="1"><g transform="translate(788.297775, 516.970596)"><g><path d="M 14.46875 0 L 19.257812 0 L 11.921875 -20.375 L 6.894531 -20.375 L -0.441406 0 L 4.347656 0 L 5.605469 -3.835938 L 13.210938 -3.835938 Z M 6.792969 -7.574219 L 9.40625 -15.65625 L 12.023438 -7.574219 Z M 6.792969 -7.574219 "/></g></g></g><g fill="#000000" fill-opacity="1"><g transform="translate(808.632024, 516.970596)"><g><path d="M 6.488281 -3.972656 L 6.488281 -20.375 L 2.003906 -20.375 L 2.003906 0 L 13.246094 0 L 13.246094 -3.972656 Z M 6.488281 -3.972656 "/></g></g></g><path fill="#d9abb6" d="M 720.289062 722.222656 C 716.558594 722.222656 713.511719 725.265625 713.511719 729 C 713.511719 732.730469 716.558594 735.777344 720.289062 735.777344 C 724.023438 735.777344 727.066406 732.730469 727.066406 729 C 727.066406 725.265625 724.023438 722.222656 720.289062 722.222656 Z M 720.289062 722.222656 " fill-opacity="1" fill-rule="nonzero"/><path fill="#d9abb6" d="M 729.394531 712.375 L 711.183594 712.375 C 707.054688 712.375 703.667969 715.738281 703.667969 719.894531 L 703.667969 738.105469 C 703.667969 742.234375 707.027344 745.621094 711.183594 745.621094 L 729.394531 745.621094 C 733.527344 745.621094 736.914062 742.261719 736.914062 738.105469 L 736.914062 719.894531 C 736.886719 715.738281 733.527344 712.375 729.394531 712.375 Z M 720.289062 739.191406 C 714.652344 739.191406 710.074219 734.609375 710.074219 728.972656 C 710.074219 723.335938 714.652344 718.753906 720.289062 718.753906 C 725.929688 718.753906 730.507812 723.335938 730.507812 728.972656 C 730.480469 734.609375 725.902344 739.191406 720.289062 739.191406 Z M 731.222656 720.476562 C 729.871094 720.476562 728.761719 719.363281 728.761719 718.011719 C 728.761719 716.664062 729.871094 715.550781 731.222656 715.550781 C 732.574219 715.550781 733.683594 716.664062 733.683594 718.011719 C 733.683594 719.390625 732.597656 720.476562 731.222656 720.476562 Z M 731.222656 720.476562 " fill-opacity="1" fill-rule="nonzero"/><g clip-path="url(#8003694cee)"><path fill="#d9abb6" d="M 720.289062 698.425781 C 703.402344 698.425781 689.714844 712.109375 689.714844 729 C 689.714844 745.886719 703.402344 759.574219 720.289062 759.574219 C 737.179688 759.574219 750.863281 745.886719 750.863281 729 C 750.839844 712.109375 737.152344 698.425781 720.289062 698.425781 Z M 740.328125 738.105469 C 740.328125 744.140625 735.40625 749.0625 729.371094 749.0625 L 711.183594 749.0625 C 705.148438 749.0625 700.226562 744.140625 700.226562 738.105469 L 700.226562 719.894531 C 700.226562 713.859375 705.148438 708.933594 711.183594 708.933594 L 729.394531 708.933594 C 735.433594 708.933594 740.355469 713.859375 740.355469 719.894531 L 740.355469 738.105469 Z M 740.328125 738.105469 " fill-opacity="1" fill-rule="nonzero"/></g><g clip-path="url(#57c4547d31)"><path fill="#d9abb6" d="M 561.933594 698.445312 C 544.976562 698.445312 531.234375 712.1875 531.234375 729.144531 C 531.234375 744.375 542.34375 757.027344 556.882812 759.417969 L 556.882812 738.605469 L 549.070312 738.605469 L 549.070312 729.492188 L 556.882812 729.492188 L 556.882812 722.871094 C 556.882812 715.695312 562.703125 710.832031 569.882812 710.832031 C 573.070312 710.832031 575.0625 711.3125 575.0625 711.3125 L 575.0625 718.964844 L 569.882812 718.964844 C 567.726562 718.964844 565.972656 720.71875 565.972656 722.871094 L 565.972656 729.492188 L 574.347656 729.492188 L 573.175781 738.605469 L 565.972656 738.605469 L 565.972656 759.550781 C 580.992188 757.558594 592.578125 744.695312 592.578125 729.144531 C 592.605469 712.1875 578.863281 698.445312 561.933594 698.445312 Z M 561.933594 698.445312 " fill-opacity="1" fill-rule="nonzero"/></g><path fill="#d9abb6" d="M 878.824219 712.453125 C 869.902344 712.453125 862.652344 719.707031 862.652344 728.628906 C 862.652344 731.753906 863.550781 734.769531 865.21875 737.390625 L 865.617188 738 L 864.054688 743.609375 L 869.984375 742.207031 L 870.539062 742.550781 C 873.027344 744.035156 875.914062 744.828125 878.824219 744.828125 C 887.746094 744.828125 895 737.574219 895 728.65625 C 895 719.734375 887.746094 712.453125 878.824219 712.453125 Z M 888.035156 735.589844 C 887.878906 736.382812 886.183594 737.390625 885.097656 737.679688 C 882.398438 738.394531 878.585938 736.332031 874.828125 733.050781 C 871.042969 729.765625 868.5 726.273438 868.820312 723.492188 C 868.953125 722.382812 869.746094 720.554688 870.488281 720.316406 C 871.226562 720.078125 871.757812 720.316406 872.523438 720.554688 C 872.894531 720.976562 873.371094 721.480469 873.902344 722.089844 C 874.617188 722.882812 875.09375 723.597656 875.382812 724.101562 C 875.621094 724.527344 875.542969 725.054688 875.171875 725.371094 L 873.875 726.539062 C 873.636719 726.75 873.558594 727.09375 873.691406 727.382812 C 874.085938 728.230469 875.011719 729.976562 876.417969 731.195312 C 877.792969 732.414062 879.671875 733.101562 880.570312 733.367188 C 880.863281 733.472656 881.207031 733.339844 881.367188 733.074219 L 882.34375 731.644531 C 882.609375 731.25 883.140625 731.089844 883.589844 731.277344 C 884.121094 731.515625 884.914062 731.882812 885.785156 732.464844 C 886.449219 732.917969 887.03125 733.3125 887.480469 733.632812 C 887.878906 734.347656 888.195312 734.847656 888.035156 735.589844 Z M 888.035156 735.589844 " fill-opacity="1" fill-rule="nonzero"/><g clip-path="url(#37589ddec9)"><path fill="#d9abb6" d="M 878.191406 698.425781 C 861.300781 698.425781 847.617188 712.109375 847.617188 729 C 847.617188 745.886719 861.300781 759.574219 878.191406 759.574219 C 895.078125 759.574219 908.765625 745.886719 908.765625 729 C 908.738281 712.109375 895.050781 698.425781 878.191406 698.425781 Z M 878.824219 747.980469 C 875.542969 747.980469 872.339844 747.160156 869.480469 745.570312 L 859.554688 747.925781 L 862.175781 738.476562 C 860.402344 735.484375 859.472656 732.097656 859.472656 728.601562 C 859.472656 717.933594 868.15625 709.25 878.824219 709.25 C 889.492188 709.25 898.175781 717.960938 898.175781 728.628906 C 898.175781 739.296875 889.492188 747.980469 878.824219 747.980469 Z M 878.824219 747.980469 " fill-opacity="1" fill-rule="nonzero"/></g><g fill="#000000" fill-opacity="1"><g transform="translate(373.546423, 357.873518)"><g><path d="M 40.800781 -48 L 2.398438 -48 L 2.398438 -43.441406 L 19.199219 -43.441406 L 19.199219 0 L 24 0 L 24 -43.441406 L 40.800781 -43.441406 Z M 40.800781 -48 "/></g></g></g><g fill="#000000" fill-opacity="1"><g transform="translate(416.746379, 357.873518)"><g><path d="M 31.199219 -34.800781 C 31.199219 -30 27.359375 -26.160156 22.558594 -26.160156 L 9.601562 -26.160156 L 9.601562 -43.441406 L 22.558594 -43.441406 C 27.359375 -43.441406 31.199219 -39.601562 31.199219 -34.800781 Z M 28.140625 -23.101562 C 33.058594 -25.078125 36 -29.460938 36 -34.800781 C 36 -42.121094 29.519531 -48 22.199219 -48 L 4.800781 -48 L 4.800781 0 L 9.601562 0 L 9.601562 -21.601562 L 23.519531 -21.601562 L 34.320312 0 L 39.601562 0 Z M 28.140625 -23.101562 "/></g></g></g><g fill="#000000" fill-opacity="1"><g transform="translate(459.946336, 357.873518)"><g><path d="M 11.101562 -17.761719 L 19.199219 -40.921875 L 27.300781 -17.761719 Z M 21.601562 -48 L 16.800781 -48 L 0 0 L 4.980469 0 L 9.601562 -13.199219 L 28.800781 -13.199219 L 33.421875 0 L 38.398438 0 Z M 21.601562 -48 "/></g></g></g><g fill="#000000" fill-opacity="1"><g transform="translate(498.346297, 357.873518)"><g><path d="M 31.199219 -13.199219 C 31.199219 -8.460938 27.359375 -4.558594 22.621094 -4.558594 L 9.601562 -4.558594 L 9.601562 -21.71875 L 22.621094 -21.71875 C 27.359375 -21.71875 31.199219 -17.941406 31.199219 -13.199219 Z M 30 -34.800781 C 30 -30.058594 26.160156 -26.28125 21.421875 -26.28125 L 9.601562 -26.28125 L 9.601562 -43.441406 L 21.421875 -43.441406 C 26.160156 -43.441406 30 -39.539062 30 -34.800781 Z M 36 -13.199219 C 36 -17.941406 33.238281 -23.101562 28.558594 -24.421875 C 32.820312 -26.160156 34.800781 -30.601562 34.800781 -34.800781 C 34.800781 -42.121094 28.320312 -48 21 -48 L 4.800781 -48 L 4.800781 0 L 23.398438 0 C 30.71875 0 36 -5.878906 36 -13.199219 Z M 36 -13.199219 "/></g></g></g><g fill="#000000" fill-opacity="1"><g transform="translate(537.946263, 357.873518)"><g><path d="M 11.101562 -17.761719 L 19.199219 -40.921875 L 27.300781 -17.761719 Z M 21.601562 -48 L 16.800781 -48 L 0 0 L 4.980469 0 L 9.601562 -13.199219 L 28.800781 -13.199219 L 33.421875 0 L 38.398438 0 Z M 21.601562 -48 "/></g></g></g><g fill="#000000" fill-opacity="1"><g transform="translate(576.346224, 357.873518)"><g><path d="M 26.039062 -48 L 21.238281 -48 L 21.238281 -13.800781 C 21.238281 -8.519531 16.921875 -3.960938 11.640625 -3.960938 C 9.300781 -3.960938 6.960938 -4.921875 5.28125 -6.300781 L 2.398438 -2.761719 C 4.921875 -0.660156 8.101562 0.601562 11.640625 0.601562 C 20.640625 0.601562 26.039062 -5.820312 26.039062 -13.800781 Z M 26.039062 -48 "/></g></g></g><g fill="#000000" fill-opacity="1"><g transform="translate(607.186196, 357.873518)"><g><path d="M 33.601562 -4.558594 L 9.601562 -4.558594 L 9.601562 -21.71875 L 28.800781 -21.71875 L 28.800781 -26.28125 L 9.601562 -26.28125 L 9.601562 -43.441406 L 33.601562 -43.441406 L 33.601562 -48 L 4.800781 -48 L 4.800781 0 L 33.601562 0 Z M 33.601562 -4.558594 "/></g></g></g><g fill="#000000" fill-opacity="1"><g transform="translate(644.386177, 357.873518)"><g><path d="M 45 -48 L 40.199219 -48 L 24.898438 -22.199219 L 9.601562 -48 L 4.800781 -48 L 4.800781 0 L 9.601562 0 L 9.601562 -39 L 24.898438 -13.378906 L 40.199219 -39 L 40.199219 0 L 45 0 Z M 45 -48 "/></g></g></g><g fill="#000000" fill-opacity="1"><g transform="translate(694.186124, 357.873518)"><g><path d="M 43.199219 -24 C 43.199219 -13.140625 35.28125 -3.960938 25.199219 -3.960938 C 15.121094 -3.960938 7.199219 -13.140625 7.199219 -24 C 7.199219 -34.859375 15.121094 -44.039062 25.199219 -44.039062 C 35.28125 -44.039062 43.199219 -34.859375 43.199219 -24 Z M 48 -24 C 48 -37.621094 37.800781 -48.601562 25.199219 -48.601562 C 12.601562 -48.601562 2.398438 -37.621094 2.398438 -24 C 2.398438 -10.378906 12.601562 0.601562 25.199219 0.601562 C 37.800781 0.601562 48 -10.378906 48 -24 Z M 48 -24 "/></g></g></g><g fill="#000000" fill-opacity="1"><g transform="translate(744.586062, 357.873518)"><g><path d="M 35.160156 -13.558594 C 35.160156 -19.140625 31.921875 -24.480469 25.558594 -26.578125 L 14.460938 -30.238281 C 11.761719 -31.140625 9.359375 -33.121094 9.359375 -36.71875 C 9.359375 -41.519531 15.121094 -44.039062 19.320312 -44.039062 C 22.621094 -44.039062 25.980469 -42.480469 26.878906 -39.480469 L 31.199219 -40.738281 C 30.300781 -45.71875 25.019531 -48.601562 19.320312 -48.601562 C 12.71875 -48.601562 4.558594 -44.519531 4.558594 -36.71875 C 4.558594 -31.320312 7.980469 -27.421875 12.71875 -25.859375 L 23.878906 -22.199219 C 27.78125 -20.941406 30.359375 -17.039062 30.359375 -13.558594 C 30.359375 -8.820312 25.078125 -3.960938 18.839844 -3.960938 C 12.539062 -3.960938 7.800781 -8.578125 7.019531 -12.71875 L 2.398438 -11.460938 C 3.359375 -5.21875 10.441406 0.601562 18.839844 0.601562 C 27.898438 0.601562 35.160156 -6.121094 35.160156 -13.558594 Z M 35.160156 -13.558594 "/></g></g></g><g fill="#000000" fill-opacity="1"><g transform="translate(783.346009, 357.873518)"><g/></g></g><g fill="#000000" fill-opacity="1"><g transform="translate(807.345962, 357.873518)"><g><path d="M 26.039062 -48 L 21.238281 -48 L 21.238281 -13.800781 C 21.238281 -8.519531 16.921875 -3.960938 11.640625 -3.960938 C 9.300781 -3.960938 6.960938 -4.921875 5.28125 -6.300781 L 2.398438 -2.761719 C 4.921875 -0.660156 8.101562 0.601562 11.640625 0.601562 C 20.640625 0.601562 26.039062 -5.820312 26.039062 -13.800781 Z M 26.039062 -48 "/></g></g></g><g fill="#000000" fill-opacity="1"><g transform="translate(838.185957, 357.873518)"><g><path d="M 39.601562 -48 L 34.800781 -48 L 34.800781 -16.800781 C 34.800781 -9.839844 29.160156 -3.960938 22.199219 -3.960938 C 15.238281 -3.960938 9.601562 -9.839844 9.601562 -16.800781 L 9.601562 -48 L 4.800781 -48 L 4.800781 -16.800781 C 4.800781 -7.199219 12.601562 0.601562 22.199219 0.601562 C 31.800781 0.601562 39.601562 -7.199219 39.601562 -16.800781 Z M 39.601562 -48 "/></g></g></g><g fill="#000000" fill-opacity="1"><g transform="translate(882.585918, 357.873518)"><g><path d="M 40.800781 -48 L 36 -48 L 36 -8.398438 L 9.601562 -48 L 4.800781 -48 L 4.800781 0 L 9.601562 0 L 9.601562 -39.601562 L 36 0 L 40.800781 0 Z M 40.800781 -48 "/></g></g></g><g fill="#000000" fill-opacity="1"><g transform="translate(928.185861, 357.873518)"><g><path d="M 40.800781 -48 L 2.398438 -48 L 2.398438 -43.441406 L 19.199219 -43.441406 L 19.199219 0 L 24 0 L 24 -43.441406 L 40.800781 -43.441406 Z M 40.800781 -48 "/></g></g></g><g fill="#000000" fill-opacity="1"><g transform="translate(971.385841, 357.873518)"><g><path d="M 43.199219 -24 C 43.199219 -13.140625 35.28125 -3.960938 25.199219 -3.960938 C 15.121094 -3.960938 7.199219 -13.140625 7.199219 -24 C 7.199219 -34.859375 15.121094 -44.039062 25.199219 -44.039062 C 35.28125 -44.039062 43.199219 -34.859375 43.199219 -24 Z M 48 -24 C 48 -37.621094 37.800781 -48.601562 25.199219 -48.601562 C 12.601562 -48.601562 2.398438 -37.621094 2.398438 -24 C 2.398438 -10.378906 12.601562 0.601562 25.199219 0.601562 C 37.800781 0.601562 48 -10.378906 48 -24 Z M 48 -24 "/></g></g></g><g fill="#000000" fill-opacity="1"><g transform="translate(1021.785801, 357.873518)"><g><path d="M 35.160156 -13.558594 C 35.160156 -19.140625 31.921875 -24.480469 25.558594 -26.578125 L 14.460938 -30.238281 C 11.761719 -31.140625 9.359375 -33.121094 9.359375 -36.71875 C 9.359375 -41.519531 15.121094 -44.039062 19.320312 -44.039062 C 22.621094 -44.039062 25.980469 -42.480469 26.878906 -39.480469 L 31.199219 -40.738281 C 30.300781 -45.71875 25.019531 -48.601562 19.320312 -48.601562 C 12.71875 -48.601562 4.558594 -44.519531 4.558594 -36.71875 C 4.558594 -31.320312 7.980469 -27.421875 12.71875 -25.859375 L 23.878906 -22.199219 C 27.78125 -20.941406 30.359375 -17.039062 30.359375 -13.558594 C 30.359375 -8.820312 25.078125 -3.960938 18.839844 -3.960938 C 12.539062 -3.960938 7.800781 -8.578125 7.019531 -12.71875 L 2.398438 -11.460938 C 3.359375 -5.21875 10.441406 0.601562 18.839844 0.601562 C 27.898438 0.601562 35.160156 -6.121094 35.160156 -13.558594 Z M 35.160156 -13.558594 "/></g></g></g></svg>